<svg xmlns="http://www.w3.org/2000/svg" viewBox="0 0 64 64"><defs>
  <linearGradient id="g1" x1="0%" y1="0%" x2="100%" y2="100%">
    <stop offset="0%" stop-color="rgba(255,255,255,0.45)"/>
    <stop offset="50%" stop-color="rgba(107,143,197,0.25)"/>
    <stop offset="100%" stop-color="rgba(255,255,255,0.08)"/>
  </linearGradient>
  <linearGradient id="g2" x1="0%" y1="100%" x2="100%" y2="0%">
    <stop offset="0%" stop-color="rgba(255,255,255,0.05)"/>
    <stop offset="100%" stop-color="rgba(255,255,255,0.40)"/>
  </linearGradient>
  <radialGradient id="gr" cx="35%" cy="35%" r="65%">
    <stop offset="0%" stop-color="rgba(255,255,255,0.50)"/>
    <stop offset="60%" stop-color="rgba(107,143,197,0.15)"/>
    <stop offset="100%" stop-color="rgba(255,255,255,0.02)"/>
  </radialGradient>
</defs>
<filter id="sh"><feDropShadow dx="0" dy="1" stdDeviation="1" flood-color="rgba(0,0,0,0.3)"/></filter><filter id="sh2"><feDropShadow dx="0" dy="2" stdDeviation="2" flood-color="rgba(0,0,0,0.25)"/></filter>
<rect x="2" y="2" width="60" height="60" rx="14" fill="url(#gr)" stroke="rgba(255,255,255,0.2)" stroke-width="1.5"/>
<path d="M16 20 L32 12 L48 20 L48 44 L32 52 L16 44 Z" fill="none" stroke="url(#g1)" stroke-width="2" stroke-linejoin="round"/>
<path d="M16 20 L16 44 L32 52" fill="none" stroke="url(#g2)" stroke-width="1.2" opacity="0.4"/>
<path d="M48 20 L48 44 M32 12 L32 52" fill="none" stroke="url(#g1)" stroke-width="1.2" opacity="0.3"/>
<line x1="24" y1="16" x2="24" y2="40" stroke="url(#g2)" stroke-width="0.8" opacity="0.2"/>
<line x1="40" y1="16" x2="40" y2="40" stroke="url(#g2)" stroke-width="0.8" opacity="0.2"/>
<line x1="16" y1="32" x2="48" y2="32" stroke="url(#g1)" stroke-width="0.8" opacity="0.2"/>
<line x1="20" y1="24" x2="44" y2="24" stroke="url(#g1)" stroke-width="0.8" opacity="0.2"/>
<line x1="20" y1="40" x2="44" y2="40" stroke="url(#g1)" stroke-width="0.8" opacity="0.2"/>
<circle cx="16" cy="20" r="2.5" fill="url(#g1)"/>
<circle cx="48" cy="20" r="2.5" fill="url(#g1)"/>
<circle cx="16" cy="44" r="2.5" fill="url(#g1)"/>
<circle cx="48" cy="44" r="2.5" fill="url(#g1)"/>
<circle cx="32" cy="12" r="2.5" fill="url(#g1)"/>
<circle cx="32" cy="52" r="2.5" fill="url(#g1)"/>
</svg>