<svg xmlns="http://www.w3.org/2000/svg" viewBox="0 0 64 64"><defs>
  <linearGradient id="g1" x1="0%" y1="0%" x2="100%" y2="100%">
    <stop offset="0%" stop-color="rgba(255,255,255,0.45)"/>
    <stop offset="50%" stop-color="rgba(107,143,197,0.25)"/>
    <stop offset="100%" stop-color="rgba(255,255,255,0.08)"/>
  </linearGradient>
  <linearGradient id="g2" x1="0%" y1="100%" x2="100%" y2="0%">
    <stop offset="0%" stop-color="rgba(255,255,255,0.05)"/>
    <stop offset="100%" stop-color="rgba(255,255,255,0.40)"/>
  </linearGradient>
  <radialGradient id="gr" cx="35%" cy="35%" r="65%">
    <stop offset="0%" stop-color="rgba(255,255,255,0.50)"/>
    <stop offset="60%" stop-color="rgba(107,143,197,0.15)"/>
    <stop offset="100%" stop-color="rgba(255,255,255,0.02)"/>
  </radialGradient>
</defs>
<filter id="sh"><feDropShadow dx="0" dy="1" stdDeviation="1" flood-color="rgba(0,0,0,0.3)"/></filter><filter id="sh2"><feDropShadow dx="0" dy="2" stdDeviation="2" flood-color="rgba(0,0,0,0.25)"/></filter>
<rect x="2" y="2" width="60" height="60" rx="14" fill="url(#gr)" stroke="rgba(255,255,255,0.2)" stroke-width="1.5"/>
<path d="M10 10 L30 8 L50 14 L52 34 L46 54 L26 56 L6 50 L8 28 Z" fill="none" stroke="url(#g1)" stroke-width="1.8"/>
<path d="M10 10 Q20 24 30 20 Q40 16 50 14" fill="none" stroke="url(#g2)" stroke-width="1.2" opacity="0.4"/>
<path d="M8 28 Q16 38 26 36 Q36 34 46 34" fill="none" stroke="url(#g2)" stroke-width="1.2" opacity="0.4"/>
<path d="M10 10 L8 28 M30 8 L26 36 M50 14 L46 34" stroke="url(#g1)" stroke-width="0.8" opacity="0.3"/>
<path d="M6 50 L26 56 L46 54" stroke="url(#g2)" stroke-width="0.8" opacity="0.2"/>
<circle cx="12" cy="12" r="1.5" fill="white" opacity="0.5"/>
<circle cx="28" cy="18" r="1.5" fill="white" opacity="0.5"/>
<circle cx="48" cy="16" r="1.5" fill="white" opacity="0.5"/>
</svg>