<svg xmlns="http://www.w3.org/2000/svg" viewBox="0 0 64 64"><defs>
  <linearGradient id="g1" x1="0%" y1="0%" x2="100%" y2="100%">
    <stop offset="0%" stop-color="rgba(255,255,255,0.45)"/>
    <stop offset="50%" stop-color="rgba(107,143,197,0.25)"/>
    <stop offset="100%" stop-color="rgba(255,255,255,0.08)"/>
  </linearGradient>
  <linearGradient id="g2" x1="0%" y1="100%" x2="100%" y2="0%">
    <stop offset="0%" stop-color="rgba(255,255,255,0.05)"/>
    <stop offset="100%" stop-color="rgba(255,255,255,0.40)"/>
  </linearGradient>
  <radialGradient id="gr" cx="35%" cy="35%" r="65%">
    <stop offset="0%" stop-color="rgba(255,255,255,0.50)"/>
    <stop offset="60%" stop-color="rgba(107,143,197,0.15)"/>
    <stop offset="100%" stop-color="rgba(255,255,255,0.02)"/>
  </radialGradient>
</defs>
<filter id="sh"><feDropShadow dx="0" dy="1" stdDeviation="1" flood-color="rgba(0,0,0,0.3)"/></filter><filter id="sh2"><feDropShadow dx="0" dy="2" stdDeviation="2" flood-color="rgba(0,0,0,0.25)"/></filter>
<rect x="2" y="2" width="60" height="60" rx="14" fill="url(#gr)" stroke="rgba(255,255,255,0.2)" stroke-width="1.5"/>
<path d="M14 14 L32 10 L50 14 L50 50 L32 54 L14 50 Z" fill="none" stroke="url(#g1)" stroke-width="1.8"/>
<path d="M14 14 L32 10 L32 54 L14 50 Z" fill="none" stroke="url(#g2)" stroke-width="1.2" opacity="0.5"/>
<path d="M32 10 L50 14 L50 50 L32 54" fill="none" stroke="url(#g2)" stroke-width="1.2" opacity="0.5"/>
<path d="M14 24 L50 24 M14 34 L50 34 M14 44 L50 44" stroke="url(#g1)" stroke-width="0.8" opacity="0.4"/>
<path d="M23 12 L23 52 M41 12 L41 52" stroke="url(#g1)" stroke-width="0.8" opacity="0.4"/>
<circle cx="14" cy="14" r="2.5" fill="url(#g1)"/>
<circle cx="32" cy="10" r="2.5" fill="url(#g1)"/>
<circle cx="50" cy="14" r="2.5" fill="url(#g1)"/>
<circle cx="14" cy="50" r="2.5" fill="url(#g1)"/>
<circle cx="32" cy="54" r="2.5" fill="url(#g1)"/>
<circle cx="50" cy="50" r="2.5" fill="url(#g1)"/>
</svg>