<svg xmlns="http://www.w3.org/2000/svg" viewBox="0 0 64 64"><defs>
  <linearGradient id="g1" x1="0%" y1="0%" x2="100%" y2="100%">
    <stop offset="0%" stop-color="rgba(255,255,255,0.45)"/>
    <stop offset="50%" stop-color="rgba(107,143,197,0.25)"/>
    <stop offset="100%" stop-color="rgba(255,255,255,0.08)"/>
  </linearGradient>
  <linearGradient id="g2" x1="0%" y1="100%" x2="100%" y2="0%">
    <stop offset="0%" stop-color="rgba(255,255,255,0.05)"/>
    <stop offset="100%" stop-color="rgba(255,255,255,0.40)"/>
  </linearGradient>
  <radialGradient id="gr" cx="35%" cy="35%" r="65%">
    <stop offset="0%" stop-color="rgba(255,255,255,0.50)"/>
    <stop offset="60%" stop-color="rgba(107,143,197,0.15)"/>
    <stop offset="100%" stop-color="rgba(255,255,255,0.02)"/>
  </radialGradient>
</defs>
<filter id="sh"><feDropShadow dx="0" dy="1" stdDeviation="1" flood-color="rgba(0,0,0,0.3)"/></filter><filter id="sh2"><feDropShadow dx="0" dy="2" stdDeviation="2" flood-color="rgba(0,0,0,0.25)"/></filter>
<rect x="2" y="2" width="60" height="60" rx="14" fill="url(#gr)" stroke="rgba(255,255,255,0.2)" stroke-width="1.5"/>
<path d="M10 50 Q20 10 32 30 Q44 50 54 14" fill="none" stroke="url(#g1)" stroke-width="2.5" stroke-linecap="round"/>
<path d="M10 50 Q20 20 32 40 Q44 60 54 24" fill="none" stroke="url(#g2)" stroke-width="1.5" opacity="0.4" stroke-linecap="round"/>
<circle cx="10" cy="50" r="4" fill="url(#g1)" stroke="rgba(255,255,255,0.3)" stroke-width="1"/>
<circle cx="32" cy="30" r="4" fill="url(#g1)" stroke="rgba(255,255,255,0.3)" stroke-width="1"/>
<circle cx="54" cy="14" r="4" fill="url(#g1)" stroke="rgba(255,255,255,0.3)" stroke-width="1"/>
<rect x="10" y="50" width="8" height="6" rx="1" fill="url(#g2)" opacity="0.3"/>
<rect x="28" y="30" width="8" height="6" rx="1" fill="url(#g2)" opacity="0.3"/>
<rect x="50" y="14" width="8" height="6" rx="1" fill="url(#g2)" opacity="0.3"/>
</svg>